# xmcd
#
# Track frame offsets:
#	150
#	11832
#	26590
#	44717
#	58475
#	72893
#	90184
#	105787
#	122089
#	142839
#	161991
#	176277
#
# Disc length: 2578 seconds
#
# Revision: 1
# Processed by: cddbd v1.5.1PL2 Copyright (c) Steve Scherf et al.
# Submitted via: audiograbber 1.82.02
#
DISCID=9b0a100c
DTITLE=Dusty Steinle - Just Peachy
DYEAR=1900
DGENRE=
TTITLE0=Since I Met You
TTITLE1=I've Got An Angel (In My Arms Tonight)
TTITLE2=Sittin' Round My Fire
TTITLE3=Making Love
TTITLE4=Stay In Austin
TTITLE5=Just Peachy
TTITLE6=Songwriter's Lament
TTITLE7=I Left The Moon To You
TTITLE8=Aiden's Eyes
TTITLE9=Gypsy Belle
TTITLE10=Luck Charm
TTITLE11=Bliss Of Drugs
EXTD=
EXTT0=
EXTT1=
EXTT2=
EXTT3=
EXTT4=
EXTT5=
EXTT6=
EXTT7=
EXTT8=
EXTT9=
EXTT10=
EXTT11=
PLAYORDER=
